<?xml version="1.0" encoding="utf-8"?>
<!-- Generator: Adobe Illustrator 26.3.1, SVG Export Plug-In . SVG Version: 6.00 Build 0)  -->
<svg version="1.1" id="Layer_1" xmlns="http://www.w3.org/2000/svg" xmlns:xlink="http://www.w3.org/1999/xlink" x="0px" y="0px"
	 viewBox="0 0 939 462" style="enable-background:new 0 0 939 462;" xml:space="preserve">
<style type="text/css">
	.st0{fill:#161B00;}
</style>
<g>
	<path class="st0" d="M290.1,212h-46.5L300.9,5.3h56.4L413.7,212h-48.3l-10.2-41.7H300L290.1,212z M327.3,52.4l-19.5,80.4h39.6
		L327.3,52.4z M538.5,212H424.8V5.3h45v164.1h68.7V212z M665.7,212H552V5.3h45v164.1h68.7V212z M56.2,444H9.7L67,237.3h56.4
		L179.8,444h-48.3l-10.2-41.7H66.1L56.2,444z M93.4,284.4l-19.5,80.4h39.6L93.4,284.4z M255.9,448.8c-50.1,0-78-40.8-78-105.6
		c0-78.3,38.1-110.7,80.4-110.7c42,0,68.4,28.8,73.5,75.6l-42.6,9c-2.1-24.9-12-44.1-30.6-44.1c-22.8,0-33.3,26.1-33.3,68.7
		c0,43.5,11.1,66.6,33,66.6c20.4,0,31.2-21,32.4-52.8l42,10.5C328.8,415.2,305.1,448.8,255.9,448.8z M418,448.8
		c-50.1,0-78-40.8-78-105.6c0-78.3,38.1-110.7,80.4-110.7c42,0,68.4,28.8,73.5,75.6l-42.6,9c-2.1-24.9-12-44.1-30.6-44.1
		c-22.8,0-33.3,26.1-33.3,68.7c0,43.5,11.1,66.6,33,66.6c20.4,0,31.2-21,32.4-52.8l42,10.5C490.9,415.2,467.2,448.8,418,448.8z
		 M635.2,444H509.8V237.3h120.9v39.9h-76.5v42.6H616v38.7h-61.8v45.6h81V444z M644.2,374.7v-1.5l42.6-6.3v7.8
		c0,27.3,10.8,38.1,28.2,38.1c13.5,0,22.8-8.1,22.8-21.3c0-12.9-7.8-19.2-21.3-26.1l-19.5-9.9c-18.9-9.6-49.8-27-49.8-64.5
		c0-40.8,29.7-58.5,64.8-58.5c47.4,0,65.7,27.3,65.7,61.5v6.3l-40.5,6.3v-8.4c0-19.8-8.4-32.4-25.8-32.4c-12.3,0-21,6-21,20.4
		c0,12.6,10.2,20.4,20.4,25.2l21.3,9.9c21.9,10.2,50.1,27.6,50.1,65.4c0,36.6-25.2,62.1-68.4,62.1
		C664,448.8,644.2,418.2,644.2,374.7z M791.9,374.7v-1.5l42.6-6.3v7.8c0,27.3,10.8,38.1,28.2,38.1c13.5,0,22.8-8.1,22.8-21.3
		c0-12.9-7.8-19.2-21.3-26.1l-19.5-9.9c-18.9-9.6-49.8-27-49.8-64.5c0-40.8,29.7-58.5,64.8-58.5c47.4,0,65.7,27.3,65.7,61.5v6.3
		l-40.5,6.3v-8.4c0-19.8-8.4-32.4-25.8-32.4c-12.3,0-21,6-21,20.4c0,12.6,10.2,20.4,20.4,25.2l21.3,9.9
		c21.9,10.2,50.1,27.6,50.1,65.4c0,36.6-25.2,62.1-68.4,62.1C811.7,448.8,791.9,418.2,791.9,374.7z"/>
</g>
</svg>
