<svg width="939" height="462" viewBox="0 0 939 462" fill="none" xmlns="http://www.w3.org/2000/svg">
<g filter="url(#filter0_d_1_94)">
<path d="M290.085 212H243.585L300.885 5.3H357.285L413.685 212H365.385L355.185 170.3H299.985L290.085 212ZM327.285 52.4L307.785 132.8H347.385L327.285 52.4ZM538.502 212H424.802V5.3H469.802V169.4H538.502V212ZM665.732 212H552.032V5.3H597.032V169.4H665.732V212ZM56.2141 444H9.71406L67.0141 237.3H123.414L179.814 444H131.514L121.314 402.3H66.1141L56.2141 444ZM93.4141 284.4L73.9141 364.8H113.514L93.4141 284.4ZM255.857 448.8C205.757 448.8 177.857 408 177.857 343.2C177.857 264.9 215.957 232.5 258.257 232.5C300.257 232.5 326.657 261.3 331.757 308.1L289.157 317.1C287.057 292.2 277.157 273 258.557 273C235.757 273 225.257 299.1 225.257 341.7C225.257 385.2 236.357 408.3 258.257 408.3C278.657 408.3 289.457 387.3 290.657 355.5L332.657 366C328.757 415.2 305.057 448.8 255.857 448.8ZM417.951 448.8C367.851 448.8 339.951 408 339.951 343.2C339.951 264.9 378.051 232.5 420.351 232.5C462.351 232.5 488.751 261.3 493.851 308.1L451.251 317.1C449.151 292.2 439.251 273 420.651 273C397.851 273 387.351 299.1 387.351 341.7C387.351 385.2 398.451 408.3 420.351 408.3C440.751 408.3 451.551 387.3 452.751 355.5L494.751 366C490.851 415.2 467.151 448.8 417.951 448.8ZM635.245 444H509.845V237.3H630.745V277.2H554.245V319.8H616.045V358.5H554.245V404.1H635.245V444ZM644.209 374.7V373.2L686.809 366.9V374.7C686.809 402 697.609 412.8 715.009 412.8C728.509 412.8 737.809 404.7 737.809 391.5C737.809 378.6 730.009 372.3 716.509 365.4L697.009 355.5C678.109 345.9 647.209 328.5 647.209 291C647.209 250.2 676.909 232.5 712.009 232.5C759.409 232.5 777.709 259.8 777.709 294V300.3L737.209 306.6V298.2C737.209 278.4 728.809 265.8 711.409 265.8C699.109 265.8 690.409 271.8 690.409 286.2C690.409 298.8 700.609 306.6 710.809 311.4L732.109 321.3C754.009 331.5 782.209 348.9 782.209 386.7C782.209 423.3 757.009 448.8 713.809 448.8C664.009 448.8 644.209 418.2 644.209 374.7ZM791.948 374.7V373.2L834.548 366.9V374.7C834.548 402 845.348 412.8 862.748 412.8C876.248 412.8 885.548 404.7 885.548 391.5C885.548 378.6 877.748 372.3 864.248 365.4L844.748 355.5C825.848 345.9 794.948 328.5 794.948 291C794.948 250.2 824.648 232.5 859.748 232.5C907.148 232.5 925.448 259.8 925.448 294V300.3L884.948 306.6V298.2C884.948 278.4 876.548 265.8 859.148 265.8C846.848 265.8 838.148 271.8 838.148 286.2C838.148 298.8 848.348 306.6 858.548 311.4L879.848 321.3C901.748 331.5 929.948 348.9 929.948 386.7C929.948 423.3 904.748 448.8 861.548 448.8C811.748 448.8 791.948 418.2 791.948 374.7Z" fill="#ffe512"/>
</g>
<defs>
<filter id="filter0_d_1_94" x="0.714111" y="0.299988" width="938.234" height="461.5" filterUnits="userSpaceOnUse" color-interpolation-filters="sRGB">
<feFlood flood-opacity="0" result="BackgroundImageFix"/>
<feColorMatrix in="SourceAlpha" type="matrix" values="0 0 0 0 0 0 0 0 0 0 0 0 0 0 0 0 0 0 127 0" result="hardAlpha"/>
<feOffset dy="4"/>
<feGaussianBlur stdDeviation="4.5"/>
<feComposite in2="hardAlpha" operator="out"/>
<feColorMatrix type="matrix" values="0 0 0 0 0 0 0 0 0 0 0 0 0 0 0 0 0 0 0.2 0"/>
<feBlend mode="normal" in2="BackgroundImageFix" result="effect1_dropShadow_1_94"/>
<feBlend mode="normal" in="SourceGraphic" in2="effect1_dropShadow_1_94" result="shape"/>
</filter>
</defs>
</svg>
